<?xml version="1.0" standalone="no"?>
<!DOCTYPE svg PUBLIC "-//W3C//DTD SVG 20010904//EN"
 "http://www.w3.org/TR/2001/REC-SVG-20010904/DTD/svg10.dtd">
<svg version="1.0" xmlns="http://www.w3.org/2000/svg"
 width="105.000000pt" height="102.000000pt" viewBox="0 0 105.000000 102.000000"
 preserveAspectRatio="xMidYMid meet">

<g transform="translate(0.000000,102.000000) scale(0.100000,-0.100000)"
fill="#000000" stroke="none">
<path d="M670 905 c0 -14 2 -25 4 -25 2 0 6 11 8 25 3 14 1 25 -3 25 -5 0 -9
-11 -9 -25z"/>
<path d="M242 914 c20 -44 33 -64 40 -64 11 0 -18 56 -33 66 -6 4 -10 3 -7 -2z"/>
<path d="M366 887 c-5 -15 -6 -31 -2 -34 11 -11 18 5 14 34 l-4 28 -8 -28z"/>
<path d="M791 873 c-12 -14 -19 -28 -16 -31 5 -5 44 38 45 51 0 13 -8 7 -29
-20z"/>
<path d="M436 864 c-9 -36 1 -43 14 -10 12 33 12 36 1 36 -5 0 -12 -12 -15
-26z"/>
<path d="M580 855 c7 -8 17 -15 22 -15 6 0 5 7 -2 15 -7 8 -17 15 -22 15 -6 0
-5 -7 2 -15z"/>
<path d="M680 825 c-7 -8 -19 -15 -26 -15 -8 0 -23 -9 -33 -19 -19 -19 -22
-19 -51 -4 -37 18 -105 13 -128 -11 -12 -12 -18 -12 -36 -1 -12 7 -45 15 -75
18 -49 6 -53 5 -48 -13 3 -11 1 -23 -4 -26 -14 -8 -11 -60 5 -99 8 -19 17 -35
20 -35 3 0 17 11 32 25 15 14 48 32 73 39 25 8 45 18 45 22 -1 5 -5 19 -9 32
-5 19 -1 25 29 37 61 26 129 -2 107 -43 -12 -23 -5 -32 26 -32 26 0 98 -33
108 -50 10 -17 21 -12 33 15 19 41 14 81 -13 113 -14 17 -25 35 -25 40 0 19
-17 22 -30 7z m33 -45 c30 -23 43 -70 28 -98 -10 -19 -13 -19 -73 12 -35 17
-65 32 -67 33 -9 5 32 55 52 63 31 12 31 12 60 -10z m-294 -35 c14 -13 23 -26
20 -28 -2 -2 -31 -17 -64 -33 -33 -15 -63 -30 -66 -31 -13 -7 -26 52 -17 77
20 56 80 63 127 15z"/>
<path d="M833 793 c-18 -2 -33 -8 -33 -13 0 -10 78 -1 100 11 16 9 -5 10 -67
2z"/>
<path d="M155 760 c28 -12 47 -12 40 0 -3 6 -18 10 -33 9 -24 0 -25 -1 -7 -9z"/>
<path d="M833 703 c15 -2 37 -2 50 0 12 2 0 4 -28 4 -27 0 -38 -2 -22 -4z"/>
<path d="M464 681 c-219 -57 -300 -298 -155 -464 l32 -36 -17 -37 c-15 -30
-15 -37 -3 -45 26 -16 48 -10 55 16 9 37 27 47 60 35 36 -14 161 -14 196 -1
24 9 28 7 47 -25 18 -30 24 -33 41 -24 23 12 24 16 9 58 -9 27 -7 35 14 64 14
18 32 48 42 67 23 45 31 167 15 216 -17 51 -83 121 -142 151 -52 26 -143 38
-194 25z m181 -35 c141 -66 188 -208 118 -357 -48 -103 -143 -150 -272 -135
-63 8 -164 54 -157 73 3 6 0 10 -7 7 -19 -7 -65 73 -73 125 -9 60 9 144 41
193 69 104 234 149 350 94z m-272 -472 c10 -10 -15 -64 -30 -64 -10 0 -13 5
-8 18 4 9 10 25 12 35 5 17 15 22 26 11z m341 -20 c11 -40 -9 -51 -27 -15 -11
21 -12 31 -3 35 21 8 24 6 30 -20z"/>
<path d="M412 604 c-85 -42 -133 -138 -117 -231 22 -128 203 -221 326 -169
102 43 164 201 115 295 -62 117 -205 164 -324 105z m220 -16 c84 -46 124 -141
98 -233 -15 -54 -72 -123 -117 -141 -110 -47 -272 33 -301 148 -27 107 36 213
146 249 43 14 128 3 174 -23z"/>
<path d="M510 515 l0 -86 -42 -50 c-22 -27 -38 -52 -35 -55 3 -4 29 13 57 36
l51 42 -3 96 c-2 65 -7 97 -15 100 -10 3 -13 -18 -13 -83z m0 -119 c0 -2 -8
-10 -17 -17 -16 -13 -17 -12 -4 4 13 16 21 21 21 13z"/>
<path d="M647 543 c-4 -3 -7 -11 -7 -17 0 -6 5 -5 12 2 6 6 9 14 7 17 -3 3 -9
2 -12 -2z"/>
<path d="M390 525 c7 -9 15 -13 17 -11 7 7 -7 26 -19 26 -6 0 -6 -6 2 -15z"/>
<path d="M328 423 c6 -2 18 -2 25 0 6 3 1 5 -13 5 -14 0 -19 -2 -12 -5z"/>
<path d="M683 423 c9 -2 23 -2 30 0 6 3 -1 5 -18 5 -16 0 -22 -2 -12 -5z"/>
<path d="M645 290 c3 -5 11 -10 16 -10 6 0 7 5 4 10 -3 6 -11 10 -16 10 -6 0
-7 -4 -4 -10z"/>
<path d="M522 240 c0 -14 2 -19 5 -12 2 6 2 18 0 25 -3 6 -5 1 -5 -13z"/>
<path d="M170 650 c-21 -7 -19 -8 18 -9 23 -1 42 4 42 9 0 12 -24 12 -60 0z"/>
<path d="M800 625 c0 -2 11 -15 25 -29 14 -14 25 -20 25 -12 0 7 -8 20 -18 29
-18 16 -32 22 -32 12z"/>
</g>
</svg>
